<svg width="32" height="33" viewBox="0 0 32 33" fill="none" xmlns="http://www.w3.org/2000/svg">
<g clip-path="url(#clip0_6_68)">
<path d="M19.515 12.3254C18.837 12.3254 18.335 12.5018 17.942 12.7245C17.879 12.4935 17.672 12.3244 17.428 12.3749H14.444C14.149 12.3244 13.91 12.5708 14.001 12.8905V24.2343C13.91 24.523 14.149 24.7705 14.444 24.7499H17.428C17.723 24.7705 17.962 24.523 17.962 24.2188L17.961 17.3631C17.96 17.36 17.949 17.032 18.15 16.8062C18.311 16.6268 18.588 16.535 18.971 16.535C19.609 16.535 19.893 16.8041 19.999 17.4064V24.2188C19.894 24.523 20.133 24.7705 20.428 24.7499H23.573C23.868 24.7705 24.107 24.523 24.001 24.2188V17.1774C24.106 13.5969 21.633 12.3254 19.515 12.3254ZM23.038 23.7187H20.962V17.4064C20.962 16.1885 20.199 15.4336 18.972 15.4336C18.278 15.4336 17.738 15.644 17.366 16.0585C16.849 16.636 16.889 17.3682 17 17.5312V23.7187H14.978V13.4268H16.894V13.7733C16.8932 13.8765 16.9207 13.9779 16.9733 14.0657C17.0258 14.1535 17.1014 14.2243 17.1912 14.2699C17.281 14.3154 17.3815 14.3339 17.481 14.3233C17.5806 14.3126 17.6752 14.2731 17.754 14.2095L17.894 14.0981C18.299 13.7692 18.718 13.4278 19.516 13.4278C20.342 13.4278 23.039 13.699 23.039 17.1785L23.038 23.7187ZM11 7.18359C9.878 7.18359 8.966 8.12409 8.966 9.28116C8.966 10.4382 9.878 11.3787 11 11.3787C12.122 11.3787 13.034 10.4382 13.034 9.28116C13.034 8.12409 12.122 7.18359 11 7.18359ZM11 10.2773C10.468 10.2773 10.034 9.82978 10.034 9.28116C10.034 8.73253 10.468 8.28497 11 8.28497C11.532 8.28497 11.966 8.73253 11.966 9.28116C11.966 9.82978 11.532 10.2773 11 10.2773ZM12.428 12.3244H9.46C9.165 12.3244 8.926 12.5708 9 12.8905V24.2343C8.926 24.523 9.165 24.7705 9.46 24.7499H12.428C12.723 24.7705 12.962 24.523 12.962 24.2188V12.8751C12.962 12.729 12.9057 12.5889 12.8056 12.4857C12.7055 12.3824 12.5696 12.3244 12.428 12.3244ZM12 23.7187H9.994V13.4268H12V23.7187Z" fill="#F4C095"/>
<path d="M16 -0.0351562C7.158 -0.0351562 -0.0339966 7.3816 -0.0339966 16.4999C-0.0339966 25.6182 7.158 33.035 16 33.035C24.842 33.035 32.034 25.6182 32.034 16.4999C32.034 7.3816 24.842 -0.0351562 16 -0.0351562ZM16 31.9336C7.748 31.9336 1.034 25.0098 1.034 16.4999C1.034 7.99003 7.748 1.06622 16 1.06622C24.252 1.06622 30.966 7.99003 30.966 16.4999C30.966 25.0098 24.252 31.9336 16 31.9336Z" fill="#F4C095"/>
</g>
<defs>
<clipPath id="clip0_6_68">
<rect width="32" height="33" fill="white"/>
</clipPath>
</defs>
</svg>
