<svg width="33" height="33" viewBox="0 0 33 33" fill="none" xmlns="http://www.w3.org/2000/svg">
<g clip-path="url(#clip0_6_64)">
<path d="M16.5 -0.0351562C7.38274 -0.0351562 -0.0360718 7.3816 -0.0360718 16.4999C-0.0360718 25.6182 7.38274 33.035 16.5 33.035C25.6173 33.035 33.0361 25.6182 33.0361 16.4999C33.0361 7.3816 25.6173 -0.0351562 16.5 -0.0351562ZM16.5 31.9336C7.99015 31.9336 1.06737 25.0098 1.06737 16.4999C1.06737 7.99003 7.99015 1.06622 16.5 1.06622C25.0099 1.06622 31.9327 7.99003 31.9327 16.4999C31.9327 25.0098 25.0099 31.9336 16.5 31.9336Z" fill="#F4C095"/>
<path d="M25.5688 11.3911C25.6832 11.1794 25.7775 10.9574 25.8504 10.728C25.8841 10.6216 25.8848 10.5075 25.8523 10.4007C25.8199 10.2939 25.7558 10.1995 25.6685 10.1299C25.5813 10.0603 25.475 10.0188 25.3636 10.0109C25.2523 10.003 25.1412 10.029 25.045 10.0855C24.5165 10.3995 23.9445 10.6333 23.3475 10.7796C22.6228 10.1255 21.6817 9.76293 20.7055 9.76172C20.1751 9.76213 19.6503 9.86962 19.1625 10.0778C18.6747 10.2859 18.2339 10.5904 17.8666 10.973C17.4994 11.3556 17.2131 11.8084 17.0251 12.3043C16.837 12.8002 16.751 13.3289 16.7723 13.8589C14.453 13.5669 12.3352 12.3933 10.8581 10.5816C10.8015 10.5129 10.7291 10.459 10.6472 10.4243C10.5653 10.3895 10.4762 10.3751 10.3876 10.3822C10.2989 10.3893 10.2132 10.4177 10.1379 10.465C10.0625 10.5122 9.99966 10.577 9.95468 10.6538C9.61646 11.2343 9.43262 11.8918 9.4207 12.5635C9.40879 13.2353 9.5692 13.8989 9.88662 14.491C9.80877 14.5042 9.73398 14.5314 9.66593 14.5715C9.58255 14.6246 9.5139 14.6979 9.46632 14.7846C9.41874 14.8713 9.39376 14.9686 9.39368 15.0675C9.39368 16.238 9.91446 17.3125 10.7539 18.0427L10.7178 18.0788C10.6544 18.1504 10.6108 18.2374 10.5913 18.3311C10.5718 18.4248 10.577 18.5219 10.6064 18.6129C10.7815 19.159 11.0737 19.6602 11.4628 20.0815C11.8518 20.5028 12.3282 20.834 12.8587 21.0518C11.7693 21.5833 10.5501 21.7905 9.34625 21.6489C9.2225 21.6363 9.09807 21.6651 8.99244 21.7308C8.88682 21.7965 8.80597 21.8954 8.76256 22.0119C8.72087 22.1294 8.72009 22.2574 8.76034 22.3754C8.80058 22.4933 8.8795 22.5942 8.98428 22.6616C10.6209 23.712 12.5248 24.2701 14.4695 24.2693C20.8426 24.2693 24.6521 19.0925 24.6521 14.0878L24.651 13.9187C25.2687 13.4365 25.8052 12.8586 26.2402 12.2068C26.3061 12.1083 26.3384 11.9912 26.3326 11.8728C26.3267 11.7544 26.2828 11.6411 26.2075 11.5496C26.1322 11.4581 26.0294 11.3932 25.9144 11.3647C25.7994 11.3361 25.6782 11.3454 25.5688 11.3911ZM23.7693 13.2009C23.6945 13.2547 23.6343 13.3265 23.5943 13.4095C23.5543 13.4925 23.5358 13.5843 23.5404 13.6763C23.5466 13.8125 23.5497 13.9507 23.5497 14.0868C23.5497 18.55 20.1537 23.1669 14.4705 23.1669C13.4569 23.1674 12.4505 22.9973 11.4933 22.6637C12.6396 22.444 13.7165 21.9524 14.6335 21.2303C14.7227 21.1599 14.7881 21.0636 14.8206 20.9547C14.8531 20.8458 14.8511 20.7295 14.815 20.6217C14.7789 20.5139 14.7104 20.4199 14.6188 20.3526C14.5272 20.2852 14.4171 20.2478 14.3035 20.2454C13.8588 20.2369 13.4224 20.124 13.0294 19.9159C12.6364 19.7077 12.2978 19.4101 12.0409 19.0471C12.3018 19.0296 12.5576 18.9863 12.8061 18.9192C12.9264 18.887 13.0322 18.815 13.1063 18.7149C13.1804 18.6149 13.2184 18.4926 13.2141 18.3682C13.2098 18.2438 13.1634 18.1245 13.0826 18.0297C13.0017 17.935 12.8912 17.8705 12.769 17.8467C12.2668 17.7446 11.8018 17.5078 11.4238 17.1618C11.0458 16.8157 10.769 16.3734 10.6229 15.8822C10.8972 15.9513 11.1788 15.9915 11.4603 16.0008C11.7027 15.9998 11.9275 15.8513 12.0027 15.6182C12.078 15.3851 11.9893 15.1283 11.7841 14.9922C11.2989 14.6689 10.9253 14.2037 10.7143 13.6602C10.5033 13.1166 10.4653 12.5212 10.6054 11.9552C12.3967 13.7932 14.8155 14.8877 17.3787 15.0201C17.5602 15.0211 17.719 14.9561 17.8293 14.8231C17.9397 14.6901 17.9819 14.5137 17.9427 14.3446C17.8017 13.7372 17.8648 13.1002 18.1222 12.5323C18.3797 11.9643 18.8171 11.4971 19.3669 11.2028C19.9167 10.9086 20.5481 10.8037 21.1635 10.9045C21.7789 11.0053 22.3439 11.306 22.7711 11.7603C22.8351 11.8286 22.9154 11.8795 23.0046 11.9082C23.0937 11.9369 23.1886 11.9424 23.2805 11.9243C23.4507 11.8902 23.6187 11.851 23.7848 11.8057C23.7099 11.8617 23.6321 11.9137 23.5517 11.9614C23.4448 12.0269 23.3633 12.1269 23.3208 12.2448C23.2783 12.3628 23.2773 12.4918 23.3179 12.6104C23.3585 12.7291 23.4383 12.8304 23.5441 12.8976C23.65 12.9648 23.7756 12.994 23.9003 12.9803L24.088 12.9565C23.9846 13.0417 23.8783 13.1232 23.7693 13.2009Z" fill="#F4C095"/>
</g>
<defs>
<clipPath id="clip0_6_64">
<rect width="33" height="33" fill="white"/>
</clipPath>
</defs>
</svg>
