<svg width="76" height="30" viewBox="0 0 76 30" fill="none" xmlns="http://www.w3.org/2000/svg">
<path fill-rule="evenodd" clip-rule="evenodd" d="M69.2766 21.2983C69.0656 21.5092 68.7795 21.6277 68.4812 21.6277C68.1829 21.6277 67.8968 21.5092 67.6858 21.2983L61.3217 14.9342C61.2143 14.8304 61.1286 14.7063 61.0696 14.569C61.0106 14.4318 60.9796 14.2842 60.9783 14.1348C60.977 13.9854 61.0055 13.8373 61.062 13.699C61.1186 13.5607 61.2021 13.4351 61.3078 13.3295C61.4134 13.2239 61.539 13.1403 61.6773 13.0838C61.8155 13.0272 61.9637 12.9987 62.113 13C62.2624 13.0013 62.41 13.0324 62.5473 13.0913C62.6846 13.1503 62.8087 13.236 62.9125 13.3434L68.4812 18.9122L74.05 13.3434C74.2621 13.1385 74.5463 13.0251 74.8413 13.0277C75.1363 13.0303 75.4184 13.1486 75.627 13.3572C75.8356 13.5657 75.9539 13.8479 75.9565 14.1429C75.959 14.4378 75.8456 14.722 75.6407 14.9342L69.2766 21.2983Z" fill="#F4C095"/>
</svg>
