<svg width="104" height="18" viewBox="0 0 104 18" fill="none" xmlns="http://www.w3.org/2000/svg">
<g clip-path="url(#clip0_189_56)">
<path d="M8.84071 0.988763C9.14626 0.263022 10.1869 0.263023 10.4925 0.988765L12.2958 5.27222C12.4247 5.57818 12.716 5.78722 13.0503 5.8137L17.7312 6.18444C18.5243 6.24725 18.8459 7.22502 18.2416 7.73637L14.6753 10.7544C14.4206 10.97 14.3093 11.3083 14.3871 11.6305L15.4767 16.1431C15.6613 16.9077 14.8194 17.512 14.1404 17.1023L10.1329 14.6841C9.8466 14.5113 9.4866 14.5113 9.20036 14.6841L5.19281 17.1023C4.51381 17.512 3.67189 16.9077 3.8565 16.1431L4.94609 11.6305C5.02391 11.3083 4.91266 10.97 4.65794 10.7544L1.09154 7.73637C0.487294 7.22502 0.808881 6.24725 1.60197 6.18444L6.28291 5.8137C6.61727 5.78722 6.90851 5.57818 7.03732 5.27222L8.84071 0.988763Z" fill="black"/>
<path d="M30.174 0.988763C30.4795 0.263022 31.5202 0.263023 31.8257 0.988765L33.6291 5.27222C33.758 5.57818 34.0492 5.78722 34.3836 5.8137L39.0644 6.18444C39.8575 6.24725 40.1791 7.22502 39.5749 7.73637L36.0085 10.7544C35.7538 10.97 35.6425 11.3083 35.7203 11.6305L36.8099 16.1431C36.9945 16.9077 36.1526 17.512 35.4736 17.1023L31.4661 14.6841C31.1799 14.5113 30.8199 14.5113 30.5336 14.6841L26.5261 17.1023C25.8471 17.512 25.0051 16.9077 25.1897 16.1431L26.2793 11.6305C26.3572 11.3083 26.2459 10.97 25.9912 10.7544L22.4248 7.73637C21.8205 7.22502 22.1421 6.24725 22.9352 6.18444L27.6162 5.8137C27.9505 5.78722 28.2418 5.57818 28.3706 5.27222L30.174 0.988763Z" fill="black"/>
<path d="M51.5072 0.988763C51.8128 0.263022 52.8534 0.263023 53.159 0.988765L54.9623 5.27222C55.0912 5.57818 55.3825 5.78722 55.7168 5.8137L60.3977 6.18444C61.1908 6.24725 61.5124 7.22502 60.9081 7.73637L57.3418 10.7544C57.0871 10.97 56.9758 11.3083 57.0536 11.6305L58.1432 16.1431C58.3278 16.9077 57.4859 17.512 56.8069 17.1023L52.7994 14.6841C52.5131 14.5113 52.1531 14.5113 51.8669 14.6841L47.8593 17.1023C47.1803 17.512 46.3384 16.9077 46.523 16.1431L47.6126 11.6305C47.6904 11.3083 47.5792 10.97 47.3244 10.7544L43.758 7.73637C43.1538 7.22502 43.4754 6.24725 44.2685 6.18444L48.9494 5.8137C49.2838 5.78722 49.575 5.57818 49.7038 5.27222L51.5072 0.988763Z" fill="black"/>
<path d="M72.8406 0.988763C73.1461 0.263022 74.1868 0.263023 74.4924 0.988765L76.2957 5.27222C76.4246 5.57818 76.7159 5.78722 77.0502 5.8137L81.7311 6.18444C82.5242 6.24725 82.8457 7.22502 82.2415 7.73637L78.6752 10.7544C78.4205 10.97 78.3091 11.3083 78.387 11.6305L79.4766 16.1431C79.6611 16.9077 78.8193 17.512 78.1403 17.1023L74.1327 14.6841C73.8465 14.5113 73.4865 14.5113 73.2002 14.6841L69.1927 17.1023C68.5137 17.512 67.6718 16.9077 67.8564 16.1431L68.946 11.6305C69.0238 11.3083 68.9125 10.97 68.6578 10.7544L65.0914 7.73637C64.4872 7.22502 64.8088 6.24725 65.6018 6.18444L70.2828 5.8137C70.6171 5.78722 70.9084 5.57818 71.0372 5.27222L72.8406 0.988763Z" fill="black"/>
<path d="M94.1738 0.988763C94.4794 0.263022 95.5201 0.263023 95.8256 0.988765L97.629 5.27222C97.7579 5.57818 98.0491 5.78722 98.3834 5.8137L103.064 6.18444C103.857 6.24725 104.179 7.22502 103.575 7.73637L100.008 10.7544C99.7537 10.97 99.6424 11.3083 99.7202 11.6305L100.81 16.1431C100.994 16.9077 100.153 17.512 99.4735 17.1023L95.466 14.6841C95.1797 14.5113 94.8197 14.5113 94.5335 14.6841L90.5259 17.1023C89.8469 17.512 89.005 16.9077 89.1896 16.1431L90.2792 11.6305C90.357 11.3083 90.2458 10.97 89.9911 10.7544L86.4247 7.73637C85.8204 7.22502 86.142 6.24725 86.9351 6.18444L91.616 5.8137C91.9504 5.78722 92.2416 5.57818 92.3705 5.27222L94.1738 0.988763Z" fill="black"/>
</g>
<defs>
<clipPath id="clip0_189_56">
<rect width="103.111" height="16.7901" fill="white" transform="translate(0.77771 0.444458)"/>
</clipPath>
</defs>
</svg>
