<svg width="104" height="18" viewBox="0 0 104 18" fill="none" xmlns="http://www.w3.org/2000/svg">
<g clip-path="url(#clip0_189_42)">
<path d="M8.61854 0.988763C8.9241 0.263022 9.96477 0.263023 10.2703 0.988765L12.0737 5.27222C12.2026 5.57818 12.4938 5.78722 12.8281 5.8137L17.509 6.18444C18.3021 6.24725 18.6237 7.22502 18.0194 7.73637L14.4531 10.7544C14.1984 10.97 14.0871 11.3083 14.1649 11.6305L15.2545 16.1431C15.4391 16.9077 14.5972 17.512 13.9182 17.1023L9.91068 14.6841C9.62443 14.5113 9.26443 14.5113 8.97819 14.6841L4.97064 17.1023C4.29164 17.512 3.44972 16.9077 3.63433 16.1431L4.72392 11.6305C4.80174 11.3083 4.6905 10.97 4.43577 10.7544L0.869375 7.73637C0.265126 7.22502 0.586713 6.24725 1.3798 6.18444L6.06075 5.8137C6.3951 5.78722 6.68635 5.57818 6.81516 5.27222L8.61854 0.988763Z" fill="black"/>
<path d="M29.9519 0.988763C30.2574 0.263022 31.2981 0.263023 31.6036 0.988765L33.407 5.27222C33.5359 5.57818 33.8271 5.78722 34.1614 5.8137L38.8423 6.18444C39.6354 6.24725 39.957 7.22502 39.3528 7.73637L35.7864 10.7544C35.5317 10.97 35.4204 11.3083 35.4982 11.6305L36.5878 16.1431C36.7724 16.9077 35.9305 17.512 35.2515 17.1023L31.244 14.6841C30.9577 14.5113 30.5977 14.5113 30.3115 14.6841L26.304 17.1023C25.625 17.512 24.783 16.9077 24.9676 16.1431L26.0572 11.6305C26.1351 11.3083 26.0238 10.97 25.7691 10.7544L22.2027 7.73637C21.5984 7.22502 21.92 6.24725 22.7131 6.18444L27.3941 5.8137C27.7284 5.78722 28.0197 5.57818 28.1485 5.27222L29.9519 0.988763Z" fill="black"/>
<path d="M51.2851 0.988763C51.5907 0.263022 52.6313 0.263023 52.9369 0.988765L54.7402 5.27222C54.8691 5.57818 55.1604 5.78722 55.4947 5.8137L60.1756 6.18444C60.9687 6.24725 61.2903 7.22502 60.686 7.73637L57.1197 10.7544C56.865 10.97 56.7537 11.3083 56.8315 11.6305L57.9211 16.1431C58.1057 16.9077 57.2638 17.512 56.5848 17.1023L52.5772 14.6841C52.291 14.5113 51.931 14.5113 51.6448 14.6841L47.6372 17.1023C46.9582 17.512 46.1163 16.9077 46.3009 16.1431L47.3905 11.6305C47.4683 11.3083 47.3571 10.97 47.1023 10.7544L43.5359 7.73637C42.9317 7.22502 43.2533 6.24725 44.0464 6.18444L48.7273 5.8137C49.0617 5.78722 49.3529 5.57818 49.4817 5.27222L51.2851 0.988763Z" fill="black"/>
<path d="M72.6184 0.988763C72.924 0.263022 73.9646 0.263023 74.2702 0.988765L76.0735 5.27222C76.2024 5.57818 76.4937 5.78722 76.828 5.8137L81.5089 6.18444C82.302 6.24725 82.6236 7.22502 82.0193 7.73637L78.453 10.7544C78.1983 10.97 78.087 11.3083 78.1648 11.6305L79.2544 16.1431C79.439 16.9077 78.5971 17.512 77.9181 17.1023L73.9106 14.6841C73.6243 14.5113 73.2643 14.5113 72.9781 14.6841L68.9705 17.1023C68.2915 17.512 67.4496 16.9077 67.6342 16.1431L68.7238 11.6305C68.8016 11.3083 68.6904 10.97 68.4356 10.7544L64.8693 7.73637C64.265 7.22502 64.5866 6.24725 65.3797 6.18444L70.0606 5.8137C70.395 5.78722 70.6862 5.57818 70.815 5.27222L72.6184 0.988763Z" fill="black"/>
<path d="M93.9517 0.988763C94.2573 0.263022 95.298 0.263023 95.6035 0.988765L97.4069 5.27222C97.5357 5.57818 97.827 5.78722 98.1613 5.8137L102.842 6.18444C103.635 6.24725 103.957 7.22502 103.353 7.73637L99.7863 10.7544C99.5316 10.97 99.4203 11.3083 99.4981 11.6305L100.588 16.1431C100.772 16.9077 99.9304 17.512 99.2514 17.1023L95.2439 14.6841C94.9576 14.5113 94.5976 14.5113 94.3114 14.6841L90.3038 17.1023C89.6248 17.512 88.7829 16.9077 88.9675 16.1431L90.0571 11.6305C90.1349 11.3083 90.0237 10.97 89.769 10.7544L86.2026 7.73637C85.5983 7.22502 85.9199 6.24725 86.713 6.18444L91.3939 5.8137C91.7283 5.78722 92.0195 5.57818 92.1483 5.27222L93.9517 0.988763Z" fill="black"/>
</g>
<defs>
<clipPath id="clip0_189_42">
<rect width="103.111" height="16.7901" fill="white" transform="translate(0.555542 0.444458)"/>
</clipPath>
</defs>
</svg>
