<svg width="104" height="18" viewBox="0 0 104 18" fill="none" xmlns="http://www.w3.org/2000/svg">
<g clip-path="url(#clip0_189_28)">
<path d="M8.39629 0.988763C8.70184 0.263022 9.74251 0.263023 10.0481 0.988765L11.8514 5.27222C11.9803 5.57818 12.2716 5.78722 12.6059 5.8137L17.2868 6.18444C18.0798 6.24725 18.4014 7.22502 17.7972 7.73637L14.2309 10.7544C13.9761 10.97 13.8648 11.3083 13.9427 11.6305L15.0322 16.1431C15.2168 16.9077 14.375 17.512 13.6959 17.1023L9.68842 14.6841C9.40217 14.5113 9.04217 14.5113 8.75593 14.6841L4.74838 17.1023C4.06938 17.512 3.22747 16.9077 3.41207 16.1431L4.50166 11.6305C4.57948 11.3083 4.46824 10.97 4.21351 10.7544L0.647116 7.73637C0.0428666 7.22502 0.364454 6.24725 1.15754 6.18444L5.83849 5.8137C6.17284 5.78722 6.46409 5.57818 6.5929 5.27222L8.39629 0.988763Z" fill="black"/>
<path d="M29.7296 0.988763C30.0351 0.263022 31.0758 0.263023 31.3813 0.988765L33.1847 5.27222C33.3136 5.57818 33.6048 5.78722 33.9392 5.8137L38.62 6.18444C39.4131 6.24725 39.7347 7.22502 39.1305 7.73637L35.5641 10.7544C35.3094 10.97 35.1981 11.3083 35.2759 11.6305L36.3655 16.1431C36.5501 16.9077 35.7082 17.512 35.0292 17.1023L31.0217 14.6841C30.7355 14.5113 30.3755 14.5113 30.0892 14.6841L26.0817 17.1023C25.4027 17.512 24.5607 16.9077 24.7454 16.1431L25.8349 11.6305C25.9128 11.3083 25.8015 10.97 25.5468 10.7544L21.9804 7.73637C21.3761 7.22502 21.6977 6.24725 22.4908 6.18444L27.1718 5.8137C27.5061 5.78722 27.7974 5.57818 27.9262 5.27222L29.7296 0.988763Z" fill="black"/>
<path d="M51.0628 0.988763C51.3684 0.263022 52.4091 0.263023 52.7146 0.988765L54.518 5.27222C54.6469 5.57818 54.9381 5.78722 55.2724 5.8137L59.9533 6.18444C60.7464 6.24725 61.068 7.22502 60.4637 7.73637L56.8974 10.7544C56.6427 10.97 56.5314 11.3083 56.6092 11.6305L57.6988 16.1431C57.8834 16.9077 57.0415 17.512 56.3625 17.1023L52.355 14.6841C52.0687 14.5113 51.7087 14.5113 51.4225 14.6841L47.4149 17.1023C46.7359 17.512 45.894 16.9077 46.0786 16.1431L47.1682 11.6305C47.246 11.3083 47.1348 10.97 46.8801 10.7544L43.3137 7.73637C42.7094 7.22502 43.031 6.24725 43.8241 6.18444L48.5051 5.8137C48.8394 5.78722 49.1307 5.57818 49.2595 5.27222L51.0628 0.988763Z" fill="black"/>
<path d="M72.3961 0.988763C72.7017 0.263022 73.7424 0.263023 74.0479 0.988765L75.8513 5.27222C75.9801 5.57818 76.2714 5.78722 76.6057 5.8137L81.2866 6.18444C82.0797 6.24725 82.4013 7.22502 81.797 7.73637L78.2307 10.7544C77.976 10.97 77.8647 11.3083 77.9425 11.6305L79.0321 16.1431C79.2167 16.9077 78.3748 17.512 77.6958 17.1023L73.6883 14.6841C73.402 14.5113 73.042 14.5113 72.7558 14.6841L68.7482 17.1023C68.0692 17.512 67.2273 16.9077 67.4119 16.1431L68.5015 11.6305C68.5793 11.3083 68.4681 10.97 68.2134 10.7544L64.647 7.73637C64.0427 7.22502 64.3643 6.24725 65.1574 6.18444L69.8383 5.8137C70.1727 5.78722 70.4639 5.57818 70.5927 5.27222L72.3961 0.988763Z" fill="black"/>
<path d="M93.7294 0.988763C94.035 0.263022 95.0757 0.263023 95.3812 0.988765L97.1846 5.27222C97.3135 5.57818 97.6047 5.78722 97.939 5.8137L102.62 6.18444C103.413 6.24725 103.735 7.22502 103.13 7.73637L99.564 10.7544C99.3093 10.97 99.198 11.3083 99.2758 11.6305L100.365 16.1431C100.55 16.9077 99.7081 17.512 99.0291 17.1023L95.0216 14.6841C94.7353 14.5113 94.3753 14.5113 94.0891 14.6841L90.0815 17.1023C89.4025 17.512 88.5606 16.9077 88.7452 16.1431L89.8348 11.6305C89.9126 11.3083 89.8014 10.97 89.5467 10.7544L85.9803 7.73637C85.376 7.22502 85.6976 6.24725 86.4907 6.18444L91.1716 5.8137C91.506 5.78722 91.7972 5.57818 91.9261 5.27222L93.7294 0.988763Z" fill="black"/>
</g>
<defs>
<clipPath id="clip0_189_28">
<rect width="103.111" height="16.7901" fill="white" transform="translate(0.333282 0.444458)"/>
</clipPath>
</defs>
</svg>
